<svg width="63" height="58" viewBox="0 0 63 58" fill="none" xmlns="http://www.w3.org/2000/svg">
<rect width="63" height="58" rx="5" fill="#81C7D1"/>
<path d="M50.8384 18.5288C50.8384 17.8822 50.6876 17.2992 50.3744 16.8116C50.0728 16.324 49.6204 15.9212 49.0172 15.6032C44.006 12.9638 38.9832 10.3244 33.972 7.685C32.6148 6.9748 31.3156 6.996 29.97 7.7168C27.9748 8.7874 17.9756 14.0238 15.006 15.6032C13.7764 16.2498 13.1848 17.2462 13.1848 18.5394C13.1848 23.85 13.1848 29.1712 13.1848 34.4818C13.1848 35.1178 13.3356 35.6796 13.6256 36.1672C13.9272 36.6654 14.3912 37.0894 15.006 37.418C17.9872 38.9974 27.9748 44.2232 29.97 45.3044C31.3156 46.0252 32.6264 46.057 33.972 45.3362C38.9832 42.6862 44.006 40.0574 49.0172 37.418C49.6436 37.0894 50.096 36.676 50.3976 36.1672C50.6876 35.6796 50.8384 35.1178 50.8384 34.4818C50.8384 34.4712 50.8384 23.8394 50.8384 18.5288Z" fill="#5C8DBC"/>
<path d="M32.058 26.447L13.6024 36.1566C13.904 36.6548 14.368 37.0788 14.9828 37.4074C17.964 38.9868 27.9516 44.2126 29.9468 45.2938C31.2924 46.0146 32.6032 46.0464 33.9488 45.3256C38.96 42.6756 43.9828 40.0468 48.994 37.4074C49.6204 37.0788 50.0728 36.6654 50.3744 36.1566L32.058 26.447Z" fill="#1A4674"/>
<path d="M26.5944 29.3196C27.6732 31.0368 29.6916 32.1922 32 32.1922C34.3316 32.1922 36.3616 31.0262 37.4288 29.2878L32.058 26.447L26.5944 29.3196Z" fill="#1A4674"/>
<path d="M50.8384 18.5288C50.8384 17.8822 50.6876 17.2992 50.3744 16.8116L32.058 26.447L50.3976 36.1566C50.6876 35.669 50.8384 35.1072 50.8384 34.4712C50.8384 34.4712 50.8384 23.8394 50.8384 18.5288Z" fill="#1B598E"/>
<path d="M49.8292 27.1466H48.3908V28.4504H46.964V27.1466H45.5256V25.8322H46.964V24.5284H48.3908V25.8322H49.8292V27.1466Z" fill="white"/>
<path d="M44.5976 27.1466H43.1592V28.4504H41.7324V27.1466H40.294V25.8322H41.7324V24.5284H43.1592V25.8322H44.5976V27.1466Z" fill="white"/>
<path d="M37.4288 29.2878C36.3616 31.0156 34.3316 32.1922 32 32.1922C29.68 32.1922 27.6616 31.0368 26.5944 29.3196C26.0724 28.4822 25.7708 27.5282 25.7708 26.5C25.7708 23.3518 28.5548 20.8078 32 20.8078C34.2968 20.8078 36.3036 21.9526 37.3824 23.6486L42.8228 20.7866C40.6536 17.3734 36.6168 15.0732 31.9884 15.0732C25.0748 15.0732 19.4836 20.193 19.4836 26.5C19.4836 28.567 20.0868 30.5174 21.1424 32.1922C23.3 35.616 27.36 37.9268 32 37.9268C36.6516 37.9268 40.7116 35.6054 42.8692 32.1604L37.4288 29.2878Z" fill="white"/>
</svg>
