<svg width="63" height="58" viewBox="0 0 63 58" fill="none" xmlns="http://www.w3.org/2000/svg">
<rect width="63" height="58" rx="5" fill="#81C7D1"/>
<path d="M51.8384 19.5288C51.8384 18.8822 51.6876 18.2992 51.3744 17.8116C51.0728 17.324 50.6204 16.9212 50.0172 16.6032C45.006 13.9638 39.9832 11.3244 34.972 8.685C33.6148 7.9748 32.3156 7.996 30.97 8.7168C28.9748 9.7874 18.9756 15.0238 16.006 16.6032C14.7764 17.2498 14.1848 18.2462 14.1848 19.5394C14.1848 24.85 14.1848 30.1712 14.1848 35.4818C14.1848 36.1178 14.3356 36.6796 14.6256 37.1672C14.9272 37.6654 15.3912 38.0894 16.006 38.418C18.9872 39.9974 28.9748 45.2232 30.97 46.3044C32.3156 47.0252 33.6264 47.057 34.972 46.3362C39.9832 43.6862 45.006 41.0574 50.0172 38.418C50.6436 38.0894 51.096 37.676 51.3976 37.1672C51.6876 36.6796 51.8384 36.1178 51.8384 35.4818C51.8384 35.4712 51.8384 24.8394 51.8384 19.5288Z" fill="#9A4993"/>
<path d="M33.058 27.447L14.6024 37.1566C14.904 37.6548 15.368 38.0788 15.9828 38.4074C18.964 39.9868 28.9516 45.2126 30.9468 46.2938C32.2924 47.0146 33.6032 47.0464 34.9488 46.3256C39.96 43.6756 44.9828 41.0468 49.994 38.4074C50.6204 38.0788 51.0728 37.6654 51.3744 37.1566L33.058 27.447Z" fill="#6A1577"/>
<path d="M27.5944 30.3196C28.6732 32.0368 30.6916 33.1922 33 33.1922C35.3316 33.1922 37.3616 32.0262 38.4288 30.2878L33.058 27.447L27.5944 30.3196Z" fill="#6A1577"/>
<path d="M51.8384 19.5288C51.8384 18.8822 51.6876 18.2992 51.3744 17.8116L33.058 27.447L51.3976 37.1566C51.6876 36.669 51.8384 36.1072 51.8384 35.4712C51.8384 35.4712 51.8384 24.8394 51.8384 19.5288Z" fill="#813084"/>
<path d="M38.4288 30.2878C37.3616 32.0156 35.3316 33.1922 33 33.1922C30.68 33.1922 28.6616 32.0368 27.5944 30.3196C27.0724 29.4822 26.7708 28.5282 26.7708 27.5C26.7708 24.3518 29.5548 21.8078 33 21.8078C35.2968 21.8078 37.3036 22.9526 38.3824 24.6486L43.8228 21.7866C41.6536 18.3734 37.6168 16.0732 32.9884 16.0732C26.0748 16.0732 20.4836 21.193 20.4836 27.5C20.4836 29.567 21.0868 31.5174 22.1424 33.1922C24.3 36.616 28.36 38.9268 33 38.9268C37.6516 38.9268 41.7116 36.6054 43.8692 33.1604L38.4288 30.2878Z" fill="white"/>
<path d="M45.3076 24.797H44.0664V30.2772H45.3076V24.797Z" fill="white"/>
<path d="M48.0568 24.797H46.8156V30.2772H48.0568V24.797Z" fill="white"/>
<path d="M49.066 25.7192H43.0688V26.8534H49.066V25.7192Z" fill="white"/>
<path d="M49.066 28.2208H43.0688V29.355H49.066V28.2208Z" fill="white"/>
</svg>
