<svg width="66" height="58" viewBox="0 0 66 58" fill="none" xmlns="http://www.w3.org/2000/svg">
<rect x="2" width="63" height="58" rx="5" fill="#81C7D1"/>
<path d="M19.2324 43.3188L16.17 15.1956H49.83L46.7676 43.308L32.9736 46.44L19.2324 43.3188Z" fill="#1F72B5"/>
<path d="M33 44.0532L44.1408 41.526L46.7676 17.496H33V44.0532Z" fill="#51A3DC"/>
<path d="M22.0572 23.9868L21.648 20.736H44.352L44.088 24.5052L34.4916 27.972H43.692L42.702 38.664L33.4224 40.7052L23.7996 38.7936L23.2056 33.372H27.456L27.6936 36.234L33.264 37.0872L38.412 35.7912L38.6496 31.212H22.836L22.5456 27.81L33 24.0624L22.0572 23.9868Z" fill="#EBEBEB"/>
<path d="M22.5456 27.81L22.836 31.212H33V24.0624L22.5456 27.81Z" fill="#CECECE"/>
<path d="M27.6936 36.234L27.456 33.372H23.2056L23.7996 38.7936L33 40.6188V37.044L27.6936 36.234Z" fill="#CECECE"/>
<path d="M21.648 20.736L22.0572 23.9868L33 24.0624V20.736H21.648Z" fill="#CECECE"/>
<path d="M36.168 8.856V7.56H29.832V10.584H34.188V11.556H29.7V12.744H36.036V9.612H31.548V8.856H36.168Z" fill="black"/>
<path d="M24.684 10.6164V11.556H29.172V12.744H22.836V9.6444V7.56H29.04V8.856H24.684V10.6164Z" fill="black"/>
<path d="M43.164 8.856V7.56H36.828V10.584H41.184V11.556H36.696V12.744H43.032V9.612H38.544V8.856H43.164Z" fill="black"/>
</svg>
