<svg width="63" height="58" viewBox="0 0 63 58" fill="none" xmlns="http://www.w3.org/2000/svg">
<rect width="63" height="58" rx="5" fill="#81C7D1"/>
<path d="M19.755 29.859C19.8 30.831 20.772 30.381 21.204 30.075C21.618 29.787 21.744 30.03 21.78 29.463C21.807 29.085 21.843 28.716 21.825 28.338C21.195 28.284 20.511 28.428 19.998 28.806C19.728 29.004 19.233 29.625 19.755 29.859Z" fill="#F6D2A2"/>
<path d="M39.096 41.793C39.843 42.252 41.211 43.647 40.086 44.331C39.015 45.312 38.412 43.251 37.467 42.963C37.872 42.405 38.385 41.892 39.096 41.793Z" fill="#F6D2A2"/>
<path d="M25.776 43.359C24.903 43.494 24.408 44.286 23.67 44.691C22.986 45.096 22.716 44.556 22.662 44.448C22.554 44.403 22.572 44.493 22.401 44.322C21.762 43.314 23.058 42.576 23.742 42.081C24.678 41.892 25.272 42.711 25.776 43.359Z" fill="#F6D2A2"/>
<path d="M43.236 29.733C43.191 30.705 42.219 30.255 41.787 29.949C41.373 29.661 41.247 29.904 41.211 29.337C41.184 28.959 41.148 28.59 41.166 28.212C41.796 28.158 42.48 28.302 42.993 28.68C43.254 28.878 43.758 29.499 43.236 29.733Z" fill="#F6D2A2"/>
<path d="M40.662 17.898C44.028 16.71 41.4 12.102 38.466 14.136C36.54 12.489 33.894 12.183 31.113 12.183C28.386 12.399 25.794 12.903 23.985 14.478C21.06 12.597 18.369 17.115 21.798 18.258C20.835 21.993 21.933 25.8 21.78 29.598C21.636 33.009 20.745 37.581 22.635 40.641C24.246 43.26 27.711 44.196 30.573 44.295C34.218 44.43 38.637 43.53 40.41 40.002C42.102 36.636 41.634 32.442 41.418 28.815C41.211 25.152 41.616 21.435 40.662 17.898Z" fill="#69D7E2"/>
<path d="M43.488 29.157C43.398 28.959 43.218 28.734 43.047 28.608C42.615 28.293 42.057 28.131 41.481 28.113C41.463 27.528 41.445 26.889 41.445 26.079V25.341C41.436 23.019 41.409 22.002 41.274 20.733C41.166 19.734 41.013 18.807 40.788 17.943C41.553 17.655 42.048 17.169 42.246 16.548C42.435 15.972 42.336 15.324 42.021 14.748C41.688 14.181 41.166 13.758 40.554 13.587C39.897 13.407 39.177 13.542 38.493 14.001C37.881 13.479 37.17 13.083 36.378 12.786C34.974 12.264 33.345 12.066 31.131 12.066V12.156L31.122 12.066C28.755 12.255 27 12.624 25.551 13.326C24.966 13.605 24.444 13.947 23.994 14.343C23.301 13.911 22.572 13.803 21.906 14.01C21.285 14.199 20.745 14.64 20.43 15.216C20.106 15.792 20.034 16.449 20.25 17.016C20.466 17.583 20.97 18.024 21.708 18.294C21.474 19.248 21.348 20.256 21.33 21.363C21.312 22.443 21.357 23.316 21.528 25.278C21.654 26.736 21.699 27.411 21.717 28.221C21.078 28.194 20.439 28.365 19.953 28.707C19.782 28.833 19.593 29.049 19.512 29.256C19.386 29.517 19.44 29.751 19.683 29.895C19.719 30.345 19.971 30.552 20.358 30.516C20.637 30.489 20.979 30.336 21.276 30.129C21.339 30.084 21.411 30.048 21.474 30.012C21.501 30.003 21.519 29.994 21.546 29.985C21.546 29.985 21.6 29.967 21.618 29.958C21.645 29.949 21.672 29.94 21.69 29.922C21.672 30.363 21.636 30.831 21.546 31.884C21.456 33.072 21.402 33.72 21.384 34.449C21.303 37.14 21.618 39.102 22.581 40.659C22.887 41.145 23.247 41.586 23.688 41.982C23.607 42.036 23.247 42.306 23.13 42.387C22.734 42.693 22.464 42.945 22.302 43.224C22.095 43.593 22.095 43.962 22.329 44.349L22.338 44.358L22.347 44.367C22.455 44.475 22.509 44.502 22.581 44.502H22.59H22.608C22.617 44.52 22.626 44.529 22.635 44.547C22.662 44.592 22.689 44.628 22.716 44.673C22.95 44.943 23.283 45.015 23.724 44.745C23.958 44.619 24.129 44.484 24.489 44.178C24.498 44.169 24.498 44.169 24.507 44.16C25.083 43.674 25.362 43.494 25.785 43.422L25.938 43.395C25.992 43.422 26.055 43.44 26.118 43.467C27.459 44.007 29.007 44.295 30.582 44.349C32.616 44.421 34.578 44.169 36.234 43.566C36.675 43.404 37.089 43.215 37.485 43.008C37.728 43.098 37.935 43.296 38.331 43.764C38.349 43.782 38.349 43.782 38.358 43.8C38.376 43.818 38.376 43.827 38.385 43.836C38.403 43.863 38.43 43.881 38.448 43.908C38.763 44.277 38.97 44.457 39.204 44.556C39.519 44.691 39.816 44.619 40.131 44.34C40.68 43.998 40.716 43.476 40.356 42.873C40.104 42.45 39.663 42.009 39.24 41.721C39.726 41.244 40.158 40.668 40.482 40.011C41.391 38.202 41.733 36.087 41.715 33.378C41.706 32.415 41.67 31.578 41.562 29.976V29.931C41.607 29.949 41.652 29.976 41.706 30.012C41.994 30.21 42.336 30.372 42.624 30.399C43.011 30.435 43.263 30.228 43.299 29.778C43.569 29.661 43.614 29.427 43.488 29.157ZM40.491 13.794C41.058 13.947 41.544 14.343 41.85 14.865C42.156 15.396 42.237 15.99 42.066 16.512C41.886 17.07 41.436 17.511 40.725 17.772C40.581 17.259 40.41 16.764 40.23 16.287C40.5 16.053 40.635 15.756 40.419 15.342C40.203 14.928 39.825 14.883 39.438 15C39.195 14.676 38.916 14.397 38.637 14.136C39.258 13.74 39.897 13.632 40.491 13.794ZM20.403 16.98C20.205 16.467 20.268 15.864 20.574 15.342C20.88 14.811 21.366 14.397 21.951 14.226C22.554 14.046 23.202 14.136 23.841 14.505C23.472 14.838 23.148 15.216 22.86 15.63C22.374 15.378 21.87 15.324 21.591 15.846C21.303 16.404 21.636 16.755 22.122 17.016C22.059 17.178 21.987 17.349 21.933 17.511C21.87 17.718 21.798 17.934 21.744 18.15C21.051 17.889 20.601 17.484 20.403 16.98ZM21.546 29.823C21.537 29.823 21.483 29.841 21.483 29.85C21.456 29.859 21.429 29.868 21.402 29.886C21.33 29.913 21.249 29.958 21.177 30.021C20.916 30.21 20.592 30.354 20.349 30.372C20.07 30.399 19.908 30.282 19.881 29.94C20.079 29.877 20.16 29.823 20.241 29.715L20.088 29.598C20.034 29.67 19.971 29.706 19.809 29.76C19.8 29.76 19.8 29.76 19.791 29.769C19.638 29.688 19.611 29.553 19.701 29.364C19.773 29.193 19.944 28.995 20.088 28.896C20.538 28.563 21.141 28.41 21.744 28.446C21.744 28.68 21.753 28.914 21.744 29.139C21.744 29.166 21.744 29.184 21.735 29.211C21.726 29.346 21.726 29.4 21.717 29.463C21.663 29.733 21.645 29.769 21.546 29.823ZM24.39 44.043C24.381 44.052 24.381 44.052 24.372 44.061C24.021 44.367 23.85 44.484 23.634 44.61C23.274 44.826 23.031 44.781 22.86 44.574C22.833 44.547 22.815 44.511 22.797 44.484C22.788 44.475 22.779 44.457 22.77 44.448C22.77 44.448 22.77 44.448 22.77 44.439C22.788 44.268 22.851 44.151 23.022 43.881C23.031 43.872 23.031 43.872 23.031 43.863C23.139 43.71 23.184 43.629 23.229 43.521L23.058 43.449C23.022 43.53 22.977 43.611 22.878 43.764C22.869 43.773 22.869 43.773 22.869 43.782C22.698 44.025 22.626 44.178 22.59 44.349H22.581C22.581 44.349 22.581 44.349 22.572 44.349H22.554C22.536 44.34 22.509 44.322 22.473 44.286C22.104 43.701 22.401 43.206 23.229 42.576C23.337 42.504 23.679 42.252 23.778 42.18C23.796 42.18 23.814 42.171 23.832 42.162C24.345 42.594 24.939 42.972 25.596 43.287C25.596 43.296 25.605 43.305 25.614 43.314C25.218 43.395 24.921 43.593 24.39 44.043ZM40.212 43.017C40.5 43.503 40.491 43.899 40.131 44.178C40.104 44.124 40.086 44.052 40.05 43.962C40.05 43.953 40.05 43.953 40.041 43.944C39.906 43.584 39.825 43.431 39.663 43.269L39.528 43.404C39.672 43.539 39.735 43.674 39.87 44.007C39.87 44.016 39.87 44.016 39.879 44.025C39.924 44.151 39.951 44.223 39.987 44.286C39.744 44.493 39.528 44.529 39.303 44.43C39.105 44.349 38.916 44.169 38.619 43.827C38.601 43.809 38.583 43.782 38.565 43.755C38.556 43.746 38.547 43.737 38.538 43.719C38.52 43.701 38.52 43.701 38.511 43.683C38.16 43.278 37.953 43.062 37.728 42.936C38.259 42.63 38.727 42.297 39.15 41.901C39.528 42.18 39.969 42.612 40.212 43.017ZM40.347 39.957C39.537 41.586 38.106 42.738 36.18 43.431C34.542 44.025 32.598 44.268 30.591 44.196C27.135 44.07 24.138 42.864 22.734 40.587C21.789 39.066 21.483 37.14 21.564 34.476C21.591 33.747 21.627 33.099 21.726 31.911C21.834 30.57 21.861 30.183 21.888 29.58C21.906 29.148 21.906 28.707 21.897 28.23C21.879 27.402 21.834 26.745 21.708 25.26C21.537 23.298 21.492 22.443 21.51 21.372C21.537 19.959 21.726 18.717 22.122 17.538C22.761 15.621 23.94 14.334 25.641 13.497C27.063 12.804 28.791 12.444 31.131 12.255C33.327 12.255 34.929 12.453 36.315 12.966C37.971 13.578 39.204 14.649 40.059 16.305C40.608 17.646 40.923 19.086 41.094 20.742C41.229 22.002 41.256 23.019 41.265 25.332V26.07C41.274 27.213 41.292 28.014 41.337 28.815C41.355 29.13 41.364 29.256 41.409 30.003C41.517 31.605 41.553 32.433 41.562 33.396C41.58 36.096 41.238 38.184 40.347 39.957ZM43.227 29.643C43.218 29.643 43.209 29.634 43.2 29.634C43.029 29.58 42.975 29.544 42.921 29.472L42.768 29.589C42.849 29.706 42.939 29.751 43.128 29.814C43.092 30.156 42.93 30.273 42.66 30.246C42.417 30.228 42.093 30.075 41.832 29.895C41.76 29.841 41.679 29.805 41.607 29.76C41.598 29.76 41.589 29.751 41.58 29.751C41.544 29.229 41.544 29.103 41.526 28.824C41.517 28.653 41.508 28.482 41.499 28.311C42.03 28.32 42.543 28.482 42.939 28.77C43.083 28.878 43.254 29.076 43.326 29.238C43.407 29.418 43.389 29.553 43.227 29.643Z" fill="black"/>
<path d="M32.544 21.903C32.553 22.38 32.652 22.911 32.562 23.424C32.427 23.667 32.184 23.694 31.968 23.793C31.662 23.748 31.41 23.55 31.293 23.262C31.221 22.686 31.311 22.137 31.338 21.57C31.338 21.552 31.698 21.579 32.013 21.678C32.292 21.759 32.544 21.894 32.544 21.903Z" fill="white"/>
<path d="M29.88 21.948C29.619 22.947 30.231 24.576 31.239 23.235C31.167 22.668 31.248 22.119 31.275 21.57C31.284 21.525 29.889 21.876 29.88 21.948Z" fill="white"/>
<path d="M32.661 22.353C32.643 22.074 32.634 21.957 32.634 21.813V21.75L32.571 21.732L31.383 21.363V21.3L31.257 21.327H31.248V21.336L29.907 21.678L29.862 21.687L29.844 21.732C29.637 22.227 29.682 22.983 29.952 23.451C30.258 23.982 30.744 23.991 31.239 23.388C31.383 23.658 31.644 23.847 31.95 23.901H31.977L32.004 23.892C32.04 23.874 32.076 23.865 32.148 23.838C32.157 23.838 32.157 23.838 32.166 23.829C32.436 23.739 32.553 23.658 32.643 23.478L32.652 23.469V23.451C32.679 23.28 32.688 23.1 32.688 22.902C32.688 22.749 32.679 22.614 32.661 22.353ZM31.149 22.002C31.14 22.173 31.131 22.236 31.122 22.335C31.104 22.686 31.104 22.947 31.131 23.208C30.69 23.775 30.339 23.775 30.105 23.352C29.88 22.956 29.835 22.29 29.997 21.84L31.185 21.534C31.176 21.66 31.167 21.786 31.149 22.002ZM32.472 23.397C32.409 23.514 32.319 23.568 32.094 23.64C32.085 23.64 32.085 23.64 32.076 23.649C32.022 23.667 31.986 23.685 31.95 23.694C31.698 23.649 31.482 23.478 31.374 23.244C31.347 22.992 31.347 22.722 31.365 22.38C31.374 22.29 31.374 22.218 31.392 22.047C31.41 21.831 31.419 21.696 31.419 21.579L32.445 21.894C32.445 22.02 32.454 22.128 32.472 22.371C32.49 22.623 32.499 22.758 32.499 22.911C32.508 23.082 32.499 23.244 32.472 23.397Z" fill="black"/>
<path d="M24.21 17.799C25.074 21.174 30.474 20.31 30.267 16.926C30.024 12.876 23.382 13.659 24.21 17.799Z" fill="white"/>
<path d="M30.357 16.917C30.303 15.936 29.871 15.171 29.151 14.694C28.512 14.262 27.666 14.091 26.82 14.199C25.983 14.316 25.209 14.685 24.696 15.279C24.129 15.936 23.913 16.809 24.111 17.808L24.192 17.79L24.111 17.808C25.011 21.273 30.564 20.427 30.357 16.917ZM24.291 17.781C24.102 16.827 24.309 16.017 24.84 15.405C25.317 14.847 26.046 14.478 26.847 14.379C27.648 14.271 28.449 14.433 29.052 14.847C29.718 15.297 30.123 16.008 30.186 16.935C30.384 20.229 25.128 21.021 24.291 17.781Z" fill="black"/>
<path d="M25.695 18.231C26.202 18.231 26.613 17.7878 26.613 17.241C26.613 16.6942 26.202 16.251 25.695 16.251C25.188 16.251 24.777 16.6942 24.777 17.241C24.777 17.7878 25.188 18.231 25.695 18.231Z" fill="black"/>
<path d="M26.109 17.727C26.2283 17.727 26.325 17.6142 26.325 17.475C26.325 17.3358 26.2283 17.223 26.109 17.223C25.9897 17.223 25.893 17.3358 25.893 17.475C25.893 17.6142 25.9897 17.727 26.109 17.727Z" fill="white"/>
<path d="M31.779 17.169C32.445 21.039 38.781 20.013 37.863 16.116C37.044 12.606 31.554 13.578 31.779 17.169Z" fill="white"/>
<path d="M37.953 16.098C37.116 12.489 31.464 13.479 31.689 17.178V17.187C32.004 19.014 33.633 19.95 35.433 19.644C36.252 19.5 36.99 19.104 37.467 18.519C37.989 17.88 38.178 17.043 37.953 16.098ZM37.323 18.411C36.873 18.96 36.18 19.338 35.397 19.464C33.687 19.743 32.166 18.87 31.86 17.151C31.653 13.668 36.99 12.732 37.782 16.125C37.989 17.025 37.818 17.808 37.323 18.411Z" fill="black"/>
<path d="M33.336 17.988C33.8281 17.988 34.227 17.5448 34.227 16.998C34.227 16.4512 33.8281 16.008 33.336 16.008C32.8439 16.008 32.445 16.4512 32.445 16.998C32.445 17.5448 32.8439 17.988 33.336 17.988Z" fill="black"/>
<path d="M33.75 17.475C33.8643 17.475 33.957 17.3622 33.957 17.223C33.957 17.0838 33.8643 16.971 33.75 16.971C33.6357 16.971 33.543 17.0838 33.543 17.223C33.543 17.3622 33.6357 17.475 33.75 17.475Z" fill="white"/>
<path d="M30.078 19.905C29.331 19.968 28.728 20.85 29.115 21.543C29.628 22.47 30.762 21.462 31.473 21.552C32.292 21.57 32.958 22.416 33.615 21.705C34.344 20.913 33.3 20.139 32.481 19.797L30.078 19.905Z" fill="#F6D2A2"/>
<path d="M33.705 20.544C33.453 20.22 33.012 19.932 32.526 19.734L32.508 19.725H32.49L30.078 19.815C29.241 19.887 28.638 20.859 29.043 21.597C29.205 21.876 29.421 22.02 29.709 22.038C29.925 22.047 30.15 22.002 30.501 21.876C30.528 21.867 30.564 21.858 30.618 21.84C31.086 21.678 31.275 21.633 31.464 21.66H31.473C31.698 21.66 31.887 21.723 32.247 21.867C32.643 22.029 32.769 22.074 32.967 22.092C33.237 22.11 33.48 22.02 33.696 21.777C34.047 21.381 34.029 20.949 33.705 20.544ZM33.543 21.651C33.363 21.849 33.183 21.912 32.967 21.903C32.796 21.894 32.688 21.849 32.31 21.696C31.932 21.534 31.725 21.48 31.482 21.471C31.248 21.444 31.05 21.489 30.546 21.66C30.501 21.678 30.465 21.687 30.429 21.696C29.745 21.93 29.412 21.912 29.187 21.498C28.845 20.886 29.367 20.058 30.069 19.986L32.454 19.896C32.904 20.085 33.309 20.355 33.543 20.652C33.831 20.994 33.84 21.336 33.543 21.651Z" fill="#231F20"/>
<path d="M32.67 19.5C32.382 18.429 29.925 18.582 29.988 19.869C30.105 20.823 32.949 20.571 32.67 19.5Z" fill="black"/>
</svg>
