<svg width="66" height="58" viewBox="0 0 66 58" fill="none" xmlns="http://www.w3.org/2000/svg">
<rect x="2" width="63" height="58" rx="5" fill="#81C7D1"/>
<path d="M19.2324 43.3188L16.17 15.1956H49.83L46.7676 43.308L32.9736 46.44L19.2324 43.3188Z" fill="#E44D26"/>
<path d="M33 44.0532L44.1408 41.526L46.7676 17.496H33V44.0532Z" fill="#F16529"/>
<path d="M33 27.9288H27.4164L27.0336 24.3972H33V20.952H32.9868H22.4268L22.5324 21.87L23.562 31.374H33V27.9288Z" fill="#EBEBEB"/>
<path d="M33 36.882L32.9868 36.8928L28.2876 35.8452L27.984 33.102H25.7004H23.76L24.3408 38.5128L32.9868 40.4784L33 40.4676V36.882Z" fill="#EBEBEB"/>
<path d="M19.2984 7.56H21.4368V9.288H23.3904V7.56H25.5288V12.798H23.3904V11.0376H21.4368V12.798H19.2984V7.56Z" fill="black"/>
<path d="M28.3536 9.2988H26.466V7.56H32.3796V9.2988H30.492V12.798H28.3536V9.2988Z" fill="black"/>
<path d="M33.33 7.56H35.5608L36.9336 9.4068L38.3064 7.56H40.5372V12.798H38.412V10.206L36.9336 12.0744H36.894L35.4156 10.206V12.8088H33.3168V7.56H33.33Z" fill="black"/>
<path d="M41.6064 7.56H43.7448V11.07H46.7544V12.798H41.6064V7.56Z" fill="black"/>
<path d="M32.9868 27.9288V31.374H38.1744L37.686 35.8452L32.9868 36.882V40.4784L41.6196 38.5128L41.6856 37.9296L42.6756 28.8576L42.7812 27.9288H41.646H32.9868Z" fill="white"/>
<path d="M32.9868 20.952V23.0904V24.3864V24.3972H43.1508H43.164L43.2564 23.6196L43.4412 21.87L43.5468 20.952H32.9868Z" fill="white"/>
</svg>
