<svg width="63" height="58" viewBox="0 0 63 58" fill="none" xmlns="http://www.w3.org/2000/svg">
<rect width="63" height="58" rx="5" fill="#81C7D1"/>
<path d="M27.2538 30.3108C27.2538 30.3108 26.0316 30.9604 28.1232 31.1808C30.6558 31.4476 31.9536 31.4128 34.7382 30.9256C34.7382 30.9256 35.469 31.3548 36.5022 31.7144C30.24 34.1852 22.3398 31.5752 27.2538 30.3108Z" fill="#0074BD"/>
<path d="M26.4852 27.086C26.4852 27.086 25.1118 28.0256 27.2034 28.2228C29.9124 28.478 32.0418 28.5012 35.7462 27.84C35.7462 27.84 36.2628 28.3156 37.0566 28.5824C29.5092 30.6124 21.0798 28.7332 26.4852 27.086Z" fill="#0074BD"/>
<path d="M32.9364 21.6108C34.4736 23.2464 32.5332 24.7196 32.5332 24.7196C32.5332 24.7196 36.4518 22.8636 34.65 20.532C32.9742 18.3628 31.6764 17.284 38.6568 13.5604C38.6568 13.5488 27.7074 16.066 32.9364 21.6108Z" fill="#EA2D2E"/>
<path d="M41.2146 32.6888C41.2146 32.6888 42.1218 33.3732 40.2192 33.9068C36.603 34.916 25.1748 35.2176 22.0122 33.9416C20.8782 33.4892 23.0076 32.8512 23.688 32.712C24.3936 32.5728 24.7842 32.596 24.7842 32.596C23.5116 31.7724 16.5816 34.2084 21.2688 34.916C34.02 36.83 44.5284 34.0692 41.2146 32.6888Z" fill="#0074BD"/>
<path d="M27.846 23.7452C27.846 23.7452 22.0374 25.0212 25.7922 25.4736C27.3798 25.6708 30.5298 25.6244 33.4782 25.3924C35.8848 25.2068 38.304 24.8124 38.304 24.8124C38.304 24.8124 37.4598 25.1488 36.8424 25.5316C30.9456 26.9584 19.5426 26.2972 22.8186 24.8356C25.5906 23.606 27.846 23.7452 27.846 23.7452Z" fill="#0074BD"/>
<path d="M38.2662 29.1044C44.2638 26.2392 41.4918 23.4784 39.5514 23.8496C39.0726 23.9424 38.871 24.0236 38.871 24.0236C38.871 24.0236 39.0474 23.7684 39.3876 23.664C43.218 22.4228 46.1664 27.318 38.1528 29.2552C38.1528 29.2552 38.241 29.174 38.2662 29.1044Z" fill="#0074BD"/>
<path d="M34.65 7.53999C34.65 7.53999 37.9764 10.6024 31.5 15.3004C26.3088 19.0704 30.3156 21.228 31.5 23.6872C28.4634 21.17 26.2458 18.9544 27.7326 16.8896C29.925 13.8736 35.9856 12.4004 34.65 7.53999Z" fill="#EA2D2E"/>
<path d="M28.4256 36.888C34.1838 37.2244 43.029 36.7024 43.2432 34.1852C43.2432 34.1852 42.84 35.1364 38.4804 35.8904C33.5664 36.7372 27.5058 36.6444 23.9022 36.0992C23.9148 36.0992 24.6456 36.6676 28.4256 36.888Z" fill="#0074BD"/>
<path d="M42.9786 41.3888H42.8022V41.296H43.2684V41.3888H43.092V41.8412H42.966L42.9786 41.3888ZM43.9236 41.412L43.7472 41.8412H43.6716L43.4952 41.412V41.8412H43.3818V41.296H43.5456L43.7094 41.6788L43.8732 41.296H44.037V41.8412H43.9236V41.412Z" fill="#EA2D2E"/>
<path d="M27.4932 46.4696C26.9514 46.8988 26.3718 47.1424 25.8552 47.1424C25.1244 47.1424 24.7212 46.7364 24.7212 46.0868C24.7212 45.3792 25.1496 44.8688 26.8506 44.8688H27.4806V46.4696H27.4932ZM28.9926 48.024V43.21C28.9926 41.9804 28.224 41.1684 26.397 41.1684C25.326 41.1684 24.381 41.412 23.6124 41.7252L23.8266 42.5836C24.4314 42.3748 25.2126 42.1892 25.9686 42.1892C27.027 42.1892 27.4806 42.5836 27.4806 43.3956V44.0104H26.964C24.3936 44.0104 23.2344 44.9268 23.2344 46.3072C23.2344 47.502 24.003 48.1748 25.4394 48.1748C26.3592 48.1748 27.0522 47.8268 27.7074 47.3048L27.8208 48.0356H28.9926V48.024Z" fill="#EA2D2E"/>
<path d="M33.9948 48.024H32.13L29.8746 41.2844H31.5126L32.9112 45.4256L33.2262 46.6668C33.9318 44.8688 34.4358 43.036 34.6752 41.2844H36.2628C35.8218 43.5116 35.0658 45.9476 33.9948 48.024Z" fill="#EA2D2E"/>
<path d="M41.1642 46.4696C40.6224 46.8988 40.0428 47.1424 39.5262 47.1424C38.7954 47.1424 38.3922 46.7364 38.3922 46.0868C38.3922 45.3792 38.8206 44.8688 40.5216 44.8688H41.1516L41.1642 46.4696ZM42.6636 48.024V43.21C42.6636 41.9804 41.895 41.1684 40.0554 41.1684C38.9844 41.1684 38.0394 41.412 37.2708 41.7252L37.485 42.5836C38.0898 42.3748 38.871 42.1892 39.627 42.1892C40.6854 42.1892 41.139 42.5836 41.139 43.3956V44.0104H40.6098C38.0394 44.0104 36.8802 44.9268 36.8802 46.3072C36.8802 47.502 37.6488 48.1748 39.0852 48.1748C40.0176 48.1748 40.698 47.8268 41.3532 47.3048L41.4666 48.0356H42.6636V48.024Z" fill="#EA2D2E"/>
<path d="M21.5838 49.1724C21.1554 49.7524 20.4624 50.2048 19.7064 50.46L18.963 49.6596C19.5426 49.3928 20.034 48.952 20.2608 48.546C20.4624 48.1864 20.538 47.7108 20.538 46.5972V38.9064H22.1256V46.4928C22.1382 47.9776 22.0122 48.5808 21.5838 49.1724Z" fill="#EA2D2E"/>
</svg>
