<svg width="66" height="58" viewBox="0 0 66 58" fill="none" xmlns="http://www.w3.org/2000/svg">
<rect width="63" height="58" rx="5" fill="#81C7D1"/>
<path d="M54.305 9.885H12.695V47.115H54.305V9.885Z" fill="#F7DF1E"/>
<path d="M23.639 40.995L26.8196 39.2712C27.4352 40.2504 27.9938 41.0664 29.3276 41.0664C30.6158 41.0664 31.4252 40.6176 31.4252 38.8632V26.9802H35.3354V38.9244C35.3354 42.5454 32.9642 44.1978 29.4986 44.1978C26.375 44.1978 24.5624 42.7494 23.639 40.995Z" fill="black"/>
<path d="M37.4672 40.6176L40.6478 38.9652C41.4914 40.1892 42.5744 41.0868 44.501 41.0868C46.1198 41.0868 47.1572 40.3626 47.1572 39.363C47.1572 38.1594 46.097 37.7412 44.3072 37.0374L43.3268 36.66C40.511 35.589 38.63 34.2324 38.63 31.3866C38.63 28.7652 40.8644 26.766 44.3528 26.766C46.838 26.766 48.6278 27.5412 49.916 29.5608L46.8722 31.305C46.1996 30.234 45.4814 29.8056 44.3642 29.8056C43.2242 29.8056 42.4946 30.4584 42.4946 31.305C42.4946 32.3556 43.2242 32.784 44.9 33.4266L45.8804 33.804C49.2092 35.079 51.0788 36.3744 51.0788 39.3018C51.0788 42.4536 48.3086 44.1774 44.6036 44.1774C40.9556 44.1978 38.6072 42.6474 37.4672 40.6176Z" fill="black"/>
</svg>
