<svg width="63" height="58" viewBox="0 0 63 58" fill="none" xmlns="http://www.w3.org/2000/svg">
<rect width="63" height="58" rx="5" fill="#81C7D1"/>
<path d="M22.1512 34.9672H20.6848C20.6328 32.8728 20.4872 30.9104 20.2584 29.0624H20.248L18.0224 34.9672H16.9096L14.6944 29.0624H14.684C14.5176 30.8312 14.4136 32.8024 14.372 34.9672H13.02C13.1032 32.336 13.3216 29.8632 13.6648 27.5664H15.4848L17.596 33.0048H17.6064L19.728 27.5664H21.4648C21.8496 30.2592 22.0784 32.732 22.1512 34.9672Z" fill="#6A7E91"/>
<path d="M28.4952 29.5024C27.9024 32.2392 27.112 34.228 26.1344 35.4688C25.3752 36.428 24.5432 36.9032 23.628 36.9032C23.3888 36.9032 23.0872 36.8416 22.7336 36.7184V36.0584C22.9104 36.076 23.108 36.0936 23.3472 36.0936C23.7736 36.0936 24.1168 35.9968 24.3664 35.7944C24.6784 35.5568 24.8344 35.284 24.8344 34.9848C24.8344 34.7824 24.7096 34.36 24.4704 33.7264L22.8584 29.5024H24.2936L25.448 32.6616C25.708 33.3832 25.812 33.876 25.7704 34.1664C26.4048 32.7408 26.8416 31.1832 27.0912 29.5024H28.4952Z" fill="#6A7E91"/>
<path d="M47.9952 34.9672H43.8352V27.5576H45.2392V34.052H47.9952V34.9672Z" fill="#FA8A3B"/>
<path fill-rule="evenodd" clip-rule="evenodd" d="M42.7432 35.1432L41.1312 34.4744C41.2768 34.3776 41.412 34.272 41.5368 34.14C42.2232 33.4624 42.5664 32.4592 42.5664 31.1216C42.5664 28.6752 41.4328 27.4432 39.1552 27.4432C38.0424 27.4432 37.1688 27.7512 36.5448 28.376C35.8584 29.0536 35.5256 30.0568 35.5256 31.3856C35.5256 32.688 35.8272 33.6384 36.4304 34.2456C36.9816 34.7912 37.8136 35.064 38.9368 35.064C39.3528 35.064 39.7376 35.02 40.0808 34.932L42.1712 35.9616L42.7432 35.1432ZM37.5328 33.48C37.1792 32.996 37.0024 32.2216 37.0024 31.1568C37.0024 29.2912 37.668 28.3584 39.0096 28.3584C39.7064 28.3584 40.2264 28.5784 40.5488 29.0272C40.9024 29.5112 41.0792 30.2768 41.0792 31.3328C41.0792 33.216 40.4136 34.1488 39.072 34.1488C38.3752 34.1576 37.8656 33.9288 37.5328 33.48Z" fill="#FA8A3B"/>
<path d="M34.912 32.9168C34.912 33.5416 34.6416 34.0608 34.1008 34.4656C33.56 34.8704 32.8216 35.0728 31.9064 35.0728C31.0536 35.0728 30.2216 34.844 29.4208 34.3776L29.7952 33.744C30.4816 34.0344 31.116 34.184 31.6776 34.184C32.208 34.184 32.6136 34.0872 32.9152 33.8848C33.2168 33.6912 33.3936 33.4096 33.3936 33.0664C33.3936 32.6264 33.0296 32.248 32.364 31.94C31.7504 31.6584 30.5232 31.06 30.5232 31.06C29.8576 30.6464 29.5248 30.2064 29.5248 29.4848C29.5248 28.8864 29.7744 28.4024 30.2736 28.0328C30.7728 27.6632 31.4176 27.4784 32.1976 27.4784C33.0088 27.4784 33.7472 27.6632 34.4128 28.024L34.0696 28.6576C33.4976 28.4552 32.936 28.3496 32.3848 28.3496C31.9376 28.3496 31.5944 28.4376 31.3448 28.6224C31.1056 28.8072 30.9496 29.036 30.9496 29.3264C30.9496 29.7664 31.324 30.1448 32 30.4704C32.624 30.752 33.8824 31.3592 33.8824 31.3592C34.5792 31.7552 34.912 32.1952 34.912 32.9168Z" fill="#FA8A3B"/>
<path fill-rule="evenodd" clip-rule="evenodd" d="M49.7528 25.0848C48.9104 25.0672 48.2552 25.1376 47.704 25.3312C47.548 25.384 47.288 25.384 47.2672 25.5512C47.3504 25.6216 47.3608 25.736 47.4336 25.8416C47.5584 26.0176 47.7768 26.264 47.9848 26.3872C48.2032 26.528 48.432 26.6688 48.6608 26.8008C49.0768 27.0208 49.5344 27.144 49.94 27.3552C50.1688 27.4784 50.408 27.6368 50.6368 27.7776C50.7512 27.848 50.824 27.9624 50.9696 28.0064V27.98C50.8968 27.9008 50.876 27.7864 50.8032 27.6896C50.6992 27.6016 50.5952 27.5224 50.4808 27.4344C50.1688 27.0824 49.7944 26.7832 49.3784 26.528C49.0352 26.3344 48.2968 26.0616 48.1616 25.736L48.1408 25.7184C48.3696 25.7008 48.6504 25.6304 48.8688 25.5776C49.2328 25.4984 49.5552 25.516 49.9296 25.4368C50.096 25.4016 50.2728 25.3576 50.4392 25.3136V25.2344C50.252 25.076 50.1064 24.856 49.9088 24.7064C49.368 24.3104 48.7752 23.932 48.1616 23.6064C47.8288 23.4304 47.4128 23.316 47.0592 23.1576C46.9344 23.1048 46.7264 23.0784 46.6432 22.9904C46.456 22.7968 46.3416 22.5328 46.2064 22.304C45.9048 21.8112 45.6032 21.2656 45.3432 20.7464C45.156 20.3944 45.0416 20.0512 44.8024 19.7256C43.7104 18.2032 42.5248 17.2792 40.7152 16.3816C40.32 16.1968 39.8624 16.1088 39.3632 16.012C39.1032 16.0032 38.8328 15.9856 38.5728 15.9768C38.4064 15.9152 38.2296 15.748 38.084 15.66C37.4808 15.3344 35.9312 14.6392 35.484 15.5632C35.2032 16.144 35.9104 16.716 36.1496 17.0152C36.3264 17.2176 36.5656 17.4552 36.6904 17.684C36.7632 17.8336 36.784 18.0008 36.8568 18.1592C37.0232 18.5552 37.1792 18.9952 37.408 19.356C37.5224 19.5408 37.6472 19.7432 37.8032 19.9104C37.8864 20.0072 38.032 20.0512 38.0632 20.2184C37.9176 20.3944 37.9072 20.6672 37.824 20.8872C37.4392 21.8992 37.5952 23.1488 38.136 23.8968C38.3024 24.1168 38.708 24.6096 39.2488 24.4248C39.7272 24.2664 39.6232 23.756 39.7584 23.3072C39.7896 23.2016 39.7688 23.1312 39.8312 23.0608V23.0784C39.9768 23.3248 40.1224 23.5712 40.268 23.8176C40.6008 24.2576 41.1624 24.7152 41.6408 25.0144C41.8904 25.1728 42.0984 25.4544 42.4104 25.5512V25.5248H42.3896C42.3272 25.4456 42.2336 25.4104 42.1504 25.3488C41.9632 25.1904 41.7448 24.988 41.5992 24.812C41.152 24.3104 40.7672 23.756 40.4136 23.184C40.2472 22.9024 40.0912 22.6032 39.956 22.3216C39.8936 22.216 39.8936 22.0576 39.7896 21.996C39.6336 22.1896 39.3944 22.3656 39.28 22.6032C39.0824 22.9904 39.0616 23.4656 38.9784 23.9584C38.9368 23.9672 38.9576 23.9584 38.9368 23.976C38.604 23.9056 38.4792 23.6064 38.3544 23.36C38.0424 22.7264 37.98 21.7056 38.2608 20.9664C38.3336 20.7816 38.656 20.192 38.5208 20.0072C38.4584 19.84 38.2504 19.7432 38.1256 19.6024C37.9904 19.4352 37.8344 19.2152 37.7408 19.0304C37.4912 18.5288 37.356 17.9744 37.0856 17.4728C36.9608 17.244 36.732 16.9976 36.5552 16.7864C36.3576 16.5488 36.1288 16.3728 35.9728 16.0912C35.9208 15.9944 35.848 15.8272 35.9312 15.7216C35.952 15.6512 35.9936 15.6248 36.0768 15.6072C36.212 15.5104 36.6072 15.6336 36.7424 15.6864C37.1376 15.8184 37.46 15.9504 37.7928 16.1352C37.9384 16.2232 38.1048 16.3904 38.292 16.4432H38.5104C38.8536 16.5048 39.228 16.4608 39.5504 16.54C40.112 16.6896 40.6216 16.9184 41.0688 17.156C42.452 17.8952 43.596 18.9512 44.3656 20.2184C44.4904 20.4208 44.5424 20.6144 44.6672 20.8256C44.8856 21.2656 45.1664 21.7144 45.3848 22.1456C45.6032 22.568 45.8216 22.9992 46.1336 23.3424C46.2896 23.5272 46.924 23.624 47.2152 23.7296C47.4232 23.8088 47.756 23.8792 47.9432 23.976C48.3072 24.1608 48.6608 24.3808 49.004 24.5832C49.1912 24.68 49.7216 24.9 49.7528 25.0848Z" fill="#6A7E91"/>
<path fill-rule="evenodd" clip-rule="evenodd" d="M38.968 17.3056C38.7912 17.3056 38.6664 17.3232 38.5312 17.3496V17.3672H38.552C38.6352 17.508 38.7808 17.6048 38.8952 17.7368C38.9784 17.8776 39.0512 18.0184 39.1344 18.168L39.1552 18.1504C39.3008 18.0624 39.3736 17.9216 39.3736 17.7016C39.3112 17.64 39.3008 17.5784 39.2488 17.5168C39.1864 17.42 39.0512 17.376 38.968 17.3056Z" fill="#6A7E91"/>
<path d="M50.7616 34.9672H50.98V34.0608H50.6472L50.3768 34.6768L50.0856 34.0608H49.7736V34.9672H49.9816V34.272H49.992L50.2936 34.9584H50.4496L50.7512 34.272V34.9672H50.7616ZM48.9936 34.9672H49.2224V34.2104H49.524V34.052H48.6712V34.2104H48.9832V34.9672H48.9936Z" fill="#FA8A3B"/>
</svg>
