<svg width="66" height="59" viewBox="0 0 66 59" fill="none" xmlns="http://www.w3.org/2000/svg">
<rect x="1" y="1" width="63" height="58" rx="5" fill="#81C7D1"/>
<path d="M33 39.9902C45.7908 39.9902 56.1528 35.2938 56.1528 29.5C56.1528 23.7062 45.7908 19.0098 33 19.0098C20.2092 19.0098 9.8472 23.7062 9.8472 29.5C9.8472 35.2938 20.2092 39.9902 33 39.9902Z" fill="#617CBE"/>
<path d="M37.686 32.8866L38.8344 27.6002C39.0984 26.4084 38.874 25.5234 38.1876 24.957C37.5276 24.4142 36.4056 24.1546 34.7556 24.1546H32.7624L33.33 21.535C33.3564 21.4406 33.3168 21.3344 33.2508 21.2518C33.1848 21.1692 33.0792 21.1338 32.9604 21.1338H30.228C30.0432 21.1338 29.898 21.2518 29.8584 21.4052L28.644 27.0102C28.5384 26.3848 28.2612 25.842 27.8256 25.3936C27.0204 24.5676 25.7532 24.1546 24.0372 24.1546H18.7176C18.5328 24.1546 18.3876 24.2726 18.348 24.426L15.8796 35.7776C15.8532 35.872 15.8928 35.9782 15.9588 36.0608C16.0248 36.1434 16.1304 36.1788 16.2492 36.1788H19.0212C19.206 36.1788 19.3512 36.0608 19.3908 35.9074L19.9848 33.158H22.044C23.1264 33.158 24.0372 33.0518 24.7368 32.8512C25.4628 32.6388 26.1228 32.2848 26.7168 31.7892C27.192 31.3998 27.588 30.9632 27.8916 30.4912L27.4032 32.7568C27.3768 32.8512 27.4164 32.9574 27.4824 33.04C27.5484 33.1226 27.654 33.158 27.7728 33.158H30.5184C30.7032 33.158 30.8484 33.04 30.888 32.8866L32.2476 26.6562H34.1352C34.9404 26.6562 35.178 26.7978 35.2308 26.8568C35.2836 26.9158 35.4156 27.1046 35.2704 27.73L34.1748 32.7568C34.1484 32.8512 34.188 32.9574 34.254 33.04C34.32 33.1226 34.4256 33.158 34.5444 33.158H37.3296C37.5012 33.158 37.6596 33.0518 37.686 32.8866ZM24.9612 28.5206C24.7896 29.3112 24.4596 29.8776 23.9976 30.1962C23.5224 30.5266 22.7568 30.6918 21.7404 30.6918H20.5128L21.3972 26.609H22.9812C24.1428 26.609 24.618 26.8332 24.8028 27.022C25.0668 27.2816 25.1196 27.8008 24.9612 28.5206Z" fill="white"/>
<path d="M49.4208 25.3936C48.6156 24.5676 47.3484 24.1546 45.6324 24.1546H40.3128C40.128 24.1546 39.9828 24.2726 39.9432 24.426L37.488 35.7776C37.4616 35.872 37.5012 35.9782 37.5672 36.0608C37.6332 36.1434 37.7388 36.1788 37.8576 36.1788H40.6296C40.8144 36.1788 40.9596 36.0608 40.9992 35.9074L41.58 33.158H43.6392C44.7216 33.158 45.6324 33.0518 46.332 32.8512C47.058 32.6388 47.718 32.2848 48.312 31.7892C48.8004 31.388 49.2096 30.9396 49.5132 30.444C49.8168 29.9602 50.0412 29.4056 50.16 28.8274C50.49 27.376 50.2392 26.2314 49.4208 25.3936ZM46.5564 28.5206C46.3848 29.3112 46.0548 29.8776 45.5928 30.1962C45.1176 30.5266 44.352 30.6918 43.3356 30.6918H42.108L42.9924 26.609H44.5764C45.738 26.609 46.2132 26.8332 46.398 27.022C46.662 27.2816 46.7148 27.8008 46.5564 28.5206Z" fill="white"/>
<path d="M22.9812 26.2786C24.0372 26.2786 24.7368 26.4556 25.08 26.7978C25.4364 27.14 25.5156 27.7418 25.3308 28.5796C25.146 29.4528 24.7764 30.09 24.222 30.4558C23.6808 30.8334 22.8492 31.0222 21.7272 31.0222H20.0508L21.0804 26.2668H22.9812V26.2786ZM16.236 35.8484H19.008L19.668 32.8276H22.044C23.0868 32.8276 23.9448 32.7332 24.6312 32.5326C25.3044 32.332 25.9248 32.0016 26.466 31.5414C26.928 31.1638 27.3108 30.739 27.588 30.2788C27.8784 29.8186 28.0764 29.3112 28.1952 28.7566C28.4856 27.4114 28.2612 26.3612 27.5352 25.606C26.796 24.8508 25.6344 24.485 24.0372 24.485H18.7176L16.236 35.8484Z" fill="#08090D"/>
<path d="M30.228 21.476H32.9736L32.3136 24.4968H34.7556C36.3 24.4968 37.356 24.7328 37.9368 25.2166C38.5176 25.7004 38.7024 26.4792 38.4648 27.553L37.3164 32.8394H34.5312L35.6268 27.8126C35.7456 27.2462 35.706 26.8568 35.4948 26.6444C35.2836 26.432 34.8216 26.3376 34.122 26.3376H31.9308L30.5184 32.8394H27.7728L30.228 21.476Z" fill="#08090D"/>
<path d="M44.5764 26.2786C45.6324 26.2786 46.332 26.4556 46.6752 26.7978C47.0316 27.14 47.1108 27.7418 46.926 28.5796C46.7412 29.4528 46.3716 30.09 45.8172 30.4558C45.276 30.8334 44.4444 31.0222 43.3224 31.0222H41.646L42.6756 26.2668H44.5764V26.2786ZM37.8312 35.8484H40.6032L41.2632 32.8276H43.6392C44.682 32.8276 45.54 32.7332 46.2264 32.5326C46.8996 32.332 47.52 32.0016 48.0612 31.5414C48.5232 31.1638 48.906 30.739 49.1832 30.2788C49.4736 29.8186 49.6716 29.3112 49.7904 28.7566C50.0808 27.4114 49.8564 26.3612 49.1304 25.606C48.3912 24.8508 47.2296 24.485 45.6324 24.485H40.3128L37.8312 35.8484Z" fill="#08090D"/>
</svg>
