<svg width="63" height="58" viewBox="0 0 63 58" fill="none" xmlns="http://www.w3.org/2000/svg">
<rect width="63" height="58" rx="5" fill="#81C7D1"/>
<path d="M30.1016 11.5869C28.7624 11.5869 27.4976 11.7025 26.3816 11.9336C23.108 12.55 22.5128 13.7828 22.5128 16.1328V19.2148H30.2876V20.2549H22.5128H19.6112C17.342 20.2549 15.3704 21.6418 14.738 24.3385C14.0312 27.4205 13.994 29.3082 14.738 32.5057C15.296 34.8943 16.598 36.5893 18.8672 36.5893H21.5456V32.8525C21.5456 30.1943 23.7776 27.8443 26.4188 27.8443H34.1936C36.3512 27.8443 38.0624 25.9951 38.0624 23.7607V16.0943C38.0624 13.8984 36.2768 12.2803 34.1936 11.8951C32.8172 11.6639 31.4408 11.5484 30.1016 11.5869ZM25.898 14.0525C26.7164 14.0525 27.3488 14.7459 27.3488 15.5934C27.3488 16.441 26.6792 17.1344 25.898 17.1344C25.0796 17.1344 24.4472 16.441 24.4472 15.5934C24.4472 14.7074 25.0796 14.0525 25.898 14.0525Z" fill="url(#paint0_linear)"/>
<path d="M38.542 20.1779V23.7607C38.542 26.5344 36.2728 28.8459 33.6688 28.8459H25.9312C23.8108 28.8459 22.0624 30.7336 22.0624 32.9295V40.5959C22.0624 42.7918 23.8852 44.0631 25.9312 44.6795C28.3864 45.4115 30.7672 45.5656 33.706 44.6795C35.6776 44.1017 37.5748 42.9074 37.5748 40.5959V37.5139H29.8V36.4738H37.5748H41.4436C43.7128 36.4738 44.5312 34.8557 45.3124 32.3902C46.1308 29.8861 46.0936 27.459 45.3124 24.223C44.7544 21.9115 43.6756 20.1393 41.4436 20.1393H38.542V20.1779ZM34.1896 39.5943C35.008 39.5943 35.6404 40.2877 35.6404 41.1353C35.6404 41.9828 34.9708 42.6762 34.1896 42.6762C33.3712 42.6762 32.7388 41.9828 32.7388 41.1353C32.7388 40.2492 33.3712 39.5943 34.1896 39.5943Z" fill="url(#paint1_linear)"/>
<defs>
<linearGradient id="paint0_linear" x1="13.3897" y1="12.5271" x2="31.8386" y2="27.7058" gradientUnits="userSpaceOnUse">
<stop stop-color="#5A9FD4"/>
<stop offset="1" stop-color="#306998"/>
</linearGradient>
<linearGradient id="paint1_linear" x1="37.5894" y1="38.201" x2="30.8574" y2="29.0929" gradientUnits="userSpaceOnUse">
<stop stop-color="#FFD43B"/>
<stop offset="1" stop-color="#FFE873"/>
</linearGradient>
</defs>
</svg>
