<svg width="63" height="58" viewBox="0 0 63 58" fill="none" xmlns="http://www.w3.org/2000/svg">
<rect width="63" height="58" rx="5" fill="#81C7D1"/>
<path d="M42.3896 33.9782L20.8004 45.601L48.7508 43.886L50.9 18.3178L42.3896 33.9782Z" fill="url(#paint0_linear)"/>
<path d="M48.794 43.8664L46.3964 28.8234L39.8516 36.6634L48.794 43.8664Z" fill="url(#paint1_linear)"/>
<path d="M48.8264 43.8664L31.2332 42.612L20.8976 45.5716L48.8264 43.8664Z" fill="url(#paint2_linear)"/>
<path d="M20.9192 45.5716L25.3148 32.5082L15.6488 34.38L20.9192 45.5716Z" fill="url(#paint3_linear)"/>
<path d="M39.8516 36.7026L35.8016 22.326L24.224 32.175L39.8516 36.7026Z" fill="url(#paint4_linear)"/>
<path d="M49.982 22.5318L39.0416 14.4174L35.996 23.3648L49.982 22.5318Z" fill="url(#paint5_linear)"/>
<path d="M44.8628 11.5264L38.426 14.7604L34.3652 11.4872L44.8628 11.5264Z" fill="url(#paint6_linear)"/>
<path d="M13.1 38.7704L15.8 34.3016L13.6184 28.99L13.1 38.7704Z" fill="url(#paint7_linear)"/>
<path d="M13.4672 28.8234L15.6596 34.4682L25.196 32.5278L36.0824 23.3452L39.1496 14.4958L34.3112 11.399L26.0924 14.192C23.5004 16.3774 18.4784 20.709 18.2948 20.7874C18.1112 20.8658 14.9792 26.2558 13.4672 28.8234Z" fill="white"/>
<path d="M21.1784 18.6804C26.7944 13.6334 34.0304 10.6444 36.806 13.1826C39.5816 15.7306 36.6332 21.9046 31.028 26.9516C25.4228 31.9986 18.2624 35.1542 15.4868 32.616C12.7004 30.068 15.5624 23.7274 21.1784 18.6804Z" fill="url(#paint8_linear)"/>
<path d="M20.9192 45.5716L25.2824 32.4592L39.7652 36.683C34.5272 41.142 28.706 44.9052 20.9192 45.5716Z" fill="url(#paint9_linear)"/>
<path d="M36.104 23.3256L39.8192 36.6928C44.1932 32.518 48.1244 28.0296 50.0468 22.4828L36.104 23.3256Z" fill="url(#paint10_linear)"/>
<path d="M50.0036 22.5416C51.494 18.4648 51.8396 12.624 44.8196 11.5362L39.0632 14.4174L50.0036 22.5416Z" fill="url(#paint11_linear)"/>
<path d="M13.1 38.7116C13.3052 45.4344 18.6512 45.5422 20.93 45.601L15.6704 34.4388L13.1 38.7116Z" fill="#9E1209"/>
<path d="M36.1256 23.3452C39.4844 25.217 46.2668 28.99 46.3964 29.0586C46.6124 29.1664 49.3124 24.9132 49.928 22.5122L36.1256 23.3452Z" fill="url(#paint12_radial)"/>
<path d="M25.2824 32.4592L31.1144 42.6708C34.5596 40.9754 37.2596 38.9076 39.7328 36.6928L25.2824 32.4592Z" fill="url(#paint13_radial)"/>
<path d="M15.6488 34.4584L14.828 43.3862C16.3832 45.3168 18.5324 45.4834 20.7788 45.3364C19.148 41.6516 15.8972 34.3016 15.6488 34.4584Z" fill="url(#paint14_linear)"/>
<path d="M39.0308 14.4468L50.6084 15.9266C49.9928 13.5452 48.092 12.0164 44.852 11.5362L39.0308 14.4468Z" fill="url(#paint15_linear)"/>
<defs>
<linearGradient id="paint0_linear" x1="46.3103" y1="48.7132" x2="39.4502" y2="35.3652" gradientUnits="userSpaceOnUse">
<stop stop-color="#FB7655"/>
<stop offset="0.41" stop-color="#E42B1E"/>
<stop offset="0.99" stop-color="#990000"/>
<stop offset="1" stop-color="#990000"/>
</linearGradient>
<linearGradient id="paint1_linear" x1="50.2828" y1="37.9813" x2="40.6476" y2="30.8556" gradientUnits="userSpaceOnUse">
<stop stop-color="#871101"/>
<stop offset="0.99" stop-color="#911209"/>
<stop offset="1" stop-color="#911209"/>
</linearGradient>
<linearGradient id="paint2_linear" x1="42.0601" y1="49.1003" x2="32.4251" y2="41.9749" gradientUnits="userSpaceOnUse">
<stop stop-color="#871101"/>
<stop offset="0.99" stop-color="#911209"/>
<stop offset="1" stop-color="#911209"/>
</linearGradient>
<linearGradient id="paint3_linear" x1="20.4826" y1="33.4513" x2="21.7998" y2="42.8851" gradientUnits="userSpaceOnUse">
<stop stop-color="white"/>
<stop offset="0.23" stop-color="#E57252"/>
<stop offset="0.46" stop-color="#DE3B20"/>
<stop offset="0.99" stop-color="#A60003"/>
<stop offset="1" stop-color="#A60003"/>
</linearGradient>
<linearGradient id="paint4_linear" x1="31.4406" y1="24.6785" x2="31.9242" y2="34.2722" gradientUnits="userSpaceOnUse">
<stop stop-color="white"/>
<stop offset="0.23" stop-color="#E4714E"/>
<stop offset="0.56" stop-color="#BE1A0D"/>
<stop offset="0.99" stop-color="#A80D00"/>
<stop offset="1" stop-color="#A80D00"/>
</linearGradient>
<linearGradient id="paint5_linear" x1="41.165" y1="15.8158" x2="42.6251" y2="22.7503" gradientUnits="userSpaceOnUse">
<stop stop-color="white"/>
<stop offset="0.18" stop-color="#E46342"/>
<stop offset="0.4" stop-color="#C82410"/>
<stop offset="0.99" stop-color="#A80D00"/>
<stop offset="1" stop-color="#A80D00"/>
</linearGradient>
<linearGradient id="paint6_linear" x1="35.7987" y1="13.3957" x2="43.0599" y2="9.39464" gradientUnits="userSpaceOnUse">
<stop stop-color="white"/>
<stop offset="0.54" stop-color="#C81F11"/>
<stop offset="0.99" stop-color="#BF0905"/>
<stop offset="1" stop-color="#BF0905"/>
</linearGradient>
<linearGradient id="paint7_linear" x1="13.8448" y1="31.056" x2="14.3589" y2="36.7283" gradientUnits="userSpaceOnUse">
<stop stop-color="white"/>
<stop offset="0.31" stop-color="#DE4024"/>
<stop offset="0.99" stop-color="#BF190B"/>
<stop offset="1" stop-color="#BF190B"/>
</linearGradient>
<linearGradient id="paint8_linear" x1="9.55976" y1="38.249" x2="35.9495" y2="8.34399" gradientUnits="userSpaceOnUse">
<stop stop-color="#BD0012"/>
<stop offset="0.07" stop-color="white"/>
<stop offset="0.17" stop-color="white"/>
<stop offset="0.27" stop-color="#C82F1C"/>
<stop offset="0.33" stop-color="#820C01"/>
<stop offset="0.46" stop-color="#A31601"/>
<stop offset="0.72" stop-color="#B31301"/>
<stop offset="0.99" stop-color="#E82609"/>
<stop offset="1" stop-color="#E82609"/>
</linearGradient>
<linearGradient id="paint9_linear" x1="32.0019" y1="41.0065" x2="23.2842" y2="38.6353" gradientUnits="userSpaceOnUse">
<stop stop-color="#8C0C01"/>
<stop offset="0.54" stop-color="#990C00"/>
<stop offset="0.99" stop-color="#A80D0E"/>
<stop offset="1" stop-color="#A80D0E"/>
</linearGradient>
<linearGradient id="paint10_linear" x1="47.1598" y1="31.3953" x2="40.0037" y2="24.327" gradientUnits="userSpaceOnUse">
<stop stop-color="#7E110B"/>
<stop offset="0.99" stop-color="#9E0C00"/>
<stop offset="1" stop-color="#9E0C00"/>
</linearGradient>
<linearGradient id="paint11_linear" x1="50.0401" y1="19.6965" x2="46.5358" y2="15.5678" gradientUnits="userSpaceOnUse">
<stop stop-color="#79130D"/>
<stop offset="0.99" stop-color="#9E120B"/>
<stop offset="1" stop-color="#9E120B"/>
</linearGradient>
<radialGradient id="paint12_radial" cx="0" cy="0" r="1" gradientUnits="userSpaceOnUse" gradientTransform="translate(40.5407 25.1412) scale(9.60741 8.71783)">
<stop stop-color="#A80D00"/>
<stop offset="0.99" stop-color="#7E0E08"/>
<stop offset="1" stop-color="#7E0E08"/>
</radialGradient>
<radialGradient id="paint13_radial" cx="0" cy="0" r="1" gradientUnits="userSpaceOnUse" gradientTransform="translate(27.2356 36.6298) scale(12.7718 11.5892)">
<stop stop-color="#A30C00"/>
<stop offset="0.99" stop-color="#800E08"/>
<stop offset="1" stop-color="#800E08"/>
</radialGradient>
<linearGradient id="paint14_linear" x1="18.1882" y1="45.5601" x2="15.5303" y2="35.6224" gradientUnits="userSpaceOnUse">
<stop stop-color="#8B2114"/>
<stop offset="0.43" stop-color="#9E100A"/>
<stop offset="0.99" stop-color="#B3100C"/>
<stop offset="1" stop-color="#B3100C"/>
</linearGradient>
<linearGradient id="paint15_linear" x1="42.603" y1="13.0938" x2="49.4968" y2="16.4473" gradientUnits="userSpaceOnUse">
<stop stop-color="#B31000"/>
<stop offset="0.44" stop-color="#910F08"/>
<stop offset="0.99" stop-color="#791C12"/>
<stop offset="1" stop-color="#791C12"/>
</linearGradient>
</defs>
</svg>
